<svg width="32" height="32" viewBox="0 0 32 32" fill="none" xmlns="http://www.w3.org/2000/svg">
<rect width="32" height="32" rx="16" fill="#2775CA"/>
<path d="M16 28C22.6274 28 28 22.6274 28 16C28 9.37258 22.6274 4 16 4C9.37258 4 4 9.37258 4 16C4 22.6274 9.37258 28 16 28Z" fill="#2775CA"/>
<path d="M19.2 18.4C19.2 16.56 18.08 15.92 15.84 15.68C14.24 15.52 13.92 15.04 13.92 14.24C13.92 13.44 14.48 12.96 15.6 12.96C16.56 12.96 17.12 13.28 17.36 14.08C17.44 14.24 17.52 14.4 17.76 14.4H18.72C18.96 14.4 19.12 14.24 19.12 14V13.92C18.88 12.72 17.92 11.84 16.64 11.68V10.4C16.64 10.16 16.48 10 16.16 9.92H15.36C15.12 9.92 14.88 10.08 14.88 10.4V11.6C13.28 11.84 12.24 12.96 12.24 14.4C12.24 16.16 13.28 16.88 15.52 17.12C17.04 17.36 17.52 17.68 17.52 18.56C17.52 19.44 16.72 20.08 15.68 20.08C14.32 20.08 13.84 19.52 13.68 18.72C13.6 18.48 13.44 18.4 13.28 18.4H12.24C12 18.4 11.84 18.56 11.84 18.8V18.88C12.08 20.24 13.04 21.2 14.88 21.44V22.72C14.88 22.96 15.04 23.12 15.36 23.2H16.16C16.4 23.2 16.64 23.04 16.64 22.72V21.44C18.24 21.12 19.2 19.92 19.2 18.4Z" fill="white"/>
</svg>
