<?xml version="1.0" encoding="UTF-8"?>
<svg id="Layer_1" xmlns="http://www.w3.org/2000/svg" version="1.1" viewBox="0 0 1080 1080">
  <!-- Generator: Adobe Illustrator 29.0.1, SVG Export Plug-In . SVG Version: 2.1.0 Build 192)  -->
  <defs>
    <style>
      .st0 {
        fill: #009e60;
      }
    </style>
  </defs>
  <path class="st0" d="M432.92,523.02c-16.02-5.58-31.04-13.68-44.64-24.07l-2.71-2.08-3.28.97c-13.7,4.04-26.52,9.48-38.12,16.16-36.07,20.8-63.61,53.94-77.55,93.33l-1.63,4.6,3.87,2.97c14.81,11.35,30.99,20.17,48.07,26.2l6.34,2.24,2.24-6.34c7.13-20.19,18.02-38.5,32.37-54.42,19.97-22.15,45.8-38.32,74.7-46.77l20.15-5.89-19.82-6.92ZM411.74,528.88c-24.37,9.93-46.31,25.28-63.83,44.71-14.01,15.54-24.98,33.19-32.66,52.52-12-4.82-23.5-11.16-34.23-18.91,13.33-34.31,38.06-63.2,69.86-81.54,9.76-5.63,20.53-10.31,32.01-13.94,9.06,6.64,18.73,12.39,28.84,17.16Z"/>
  <path class="st0" d="M569.6,762.95c-16.98-13.01-31.03-29.02-41.73-47.59-14.9-25.84-22.3-55.4-21.4-85.49l.63-20.99-12.71,16.72c-10.27,13.52-22.62,25.31-36.73,35.04l-2.81,1.94-.09,3.41c-.39,14.28.82,28.16,3.59,41.25,8.64,40.74,31.65,77.17,64.81,102.59l3.87,2.97,4.02-2.77c15.39-10.59,28.78-23.25,39.79-37.65l4.09-5.34-5.34-4.09ZM556.06,769.34c-8.3,9.93-17.89,18.91-28.6,26.74-28.52-23.29-48.34-55.73-55.95-91.64-2.34-11.05-3.48-22.73-3.37-34.74,9.14-6.57,17.61-14,25.27-22.15,1.92,26.25,9.73,51.86,22.8,74.52,10.44,18.11,23.83,34,39.85,47.28Z"/>
  <path class="st0" d="M467.42,608.73c-42.59,29.57-97.16,36.93-146,19.7l-6.34-2.23-2.23,6.34c-6.05,17.13-9.36,35.22-9.85,53.78l-.12,4.88,4.6,1.63c18.62,6.59,38.13,9.93,58,9.93,35.86,0,70.38-10.74,99.82-31.05l2.8-1.94.1-3.41c.46-17.01,3.62-33.78,9.38-49.82l7.08-19.77-17.24,11.97Z"/>
  <path class="st0" d="M797.63,620.96c-5.3-17.89-13.21-34.54-23.51-49.48l-3.82-5.53-5.53,3.81c-17.61,12.13-37.17,20.52-58.13,24.97-29.19,6.19-59.59,4.08-87.91-6.07l-19.76-7.08,11.97,17.24c9.69,13.96,17.09,29.37,21.98,45.79l.98,3.27,3.22,1.14c13.44,4.77,26.99,7.9,40.28,9.31,6.06.64,12.22.96,18.29.96,35.59,0,69.93-10.68,99.31-30.89l4.03-2.76-1.39-4.69ZM783.27,620.07c-30.95,19.93-67.94,28.76-104.45,24.9-11.2-1.19-22.64-3.72-34.03-7.53-3.43-10.73-7.88-21.09-13.27-30.9,25.56,6.29,52.33,6.77,77.91,1.34,20.44-4.33,39.67-12.15,57.24-23.27,6.88,10.96,12.45,22.86,16.59,35.45Z"/>
  <path class="st0" d="M645.82,640.77l-.98-3.27-3.22-1.14c-16.05-5.7-31.03-13.88-44.53-24.33l-16.61-12.84,6.05,20.11c14.96,49.61,5.1,103.78-26.36,144.91l-4.08,5.34,5.34,4.09c14.44,11.06,30.62,19.8,48.12,25.99l4.61,1.63,2.97-3.88c33.99-44.3,44.71-102.85,28.7-156.6Z"/>
  <path class="st0" d="M706.48,313.83l-1.38-4.69-4.89-.13c-18.66-.5-36.9,1.9-54.28,7.06l-6.44,1.91,1.9,6.45c6.09,20.49,8.04,41.68,5.79,62.99-3.13,29.66-14.53,57.92-32.94,81.74l-12.84,16.61,20.1-6.06c16.25-4.9,33.19-7.18,50.32-6.76l3.41.09,2.09-2.71c8.69-11.31,15.85-23.23,21.29-35.42,16.96-38.02,19.75-81.02,7.87-121.08ZM660.55,388.84h0c2.2-20.78.7-41.49-4.44-61.62,12.48-3.14,25.5-4.76,38.81-4.82,9.38,35.58,6.36,73.49-8.59,107.03-4.58,10.28-10.52,20.37-17.66,30.03-11.13-.18-22.46.97-33.47,3.07,13.87-22.35,22.6-47.66,25.35-73.69Z"/>
  <path class="st0" d="M812.23,535.18c-31.64-46.01-84.01-74.31-140.09-75.68l-3.42-.08-2.07,2.71c-10.38,13.5-22.8,25.23-36.91,34.86l-17.35,11.82,20.99.45c51.81,1.11,100.28,27.22,129.67,69.85l3.82,5.53,5.53-3.81c15-10.33,28.33-23.03,39.62-37.75l2.98-3.88-2.77-4.02Z"/>
  <path class="st0" d="M519.78,376.93c-8.06-11.76-17.19-22.26-27.13-31.23-30.93-27.88-70.96-43.82-112.73-44.91l-4.88-.13-1.63,4.6c-6.22,17.56-9.59,35.65-10.06,53.79l-.17,6.72,6.72.17c21.39.54,42.16,5.24,61.72,13.97,27.25,12.15,50.61,31.72,67.57,56.59l11.83,17.35.44-21c.37-16.97,3.43-33.76,9.11-49.9l1.13-3.22-1.93-2.81ZM506.77,381.79c-3.53,10.67-6,21.65-7.41,32.74-16.97-20.1-38.35-36.23-62.25-46.89-19.09-8.51-39.27-13.49-60-14.82.87-12.89,3.35-25.77,7.4-38.37,36.75,2.07,71.87,16.67,99.14,41.25,8.37,7.54,16.14,16.31,23.13,26.1Z"/>
  <path class="st0" d="M440.65,492.19c-41.28-31.37-65.15-81.01-63.85-132.79l.17-6.72-6.72-.17c-18.21-.45-36.45,1.99-54.22,7.26l-4.68,1.39-.12,4.88c-1.45,55.85,24.3,109.53,68.89,143.6l2.72,2.07,3.27-.97c16.32-4.81,33.18-7.01,50.28-6.48l20.99.63-16.72-12.7Z"/>
  <path class="st0" d="M654.29,320.6c-5.19-17.46-13.15-34.07-23.67-49.36l-2.77-4.03-4.69,1.39c-53.56,15.88-96.65,56.96-115.27,109.89l-1.13,3.22,1.93,2.82c9.62,14.03,16.93,29.46,21.73,45.85l5.88,20.15,6.91-19.82c17.07-48.94,56.9-86.98,106.55-101.75l6.43-1.91-1.9-6.45Z"/>
</svg>