<?xml version="1.0" encoding="UTF-8"?>
<svg id="Layer_1" xmlns="http://www.w3.org/2000/svg" version="1.1" viewBox="0 0 2847.27 1080">
  <!-- Generator: Adobe Illustrator 29.0.1, SVG Export Plug-In . SVG Version: 2.1.0 Build 192)  -->
  <defs>
    <style>
      .st0 {
        fill: #009e60;
      }

      .st1 {
        fill: #fff;
      }
    </style>
  </defs>
  <rect class="st0" x="0" width="2847.27" height="1080"/>
  <g>
    <g>
      <path class="st1" d="M534.8,480.65c8.34,0,15.46-2.87,21.36-8.63,5.89-5.75,8.84-12.94,8.84-21.57s-2.95-15.53-8.84-21.57c-5.9-6.04-13.02-9.06-21.36-9.06s-15.46,3.02-21.36,9.06c-5.9,6.04-8.84,13.23-8.84,21.57s2.95,15.82,8.84,21.57c5.9,5.76,13.01,8.63,21.36,8.63Z"/>
      <path class="st1" d="M756.57,698.96c-8.05,0-14.96,2.95-20.71,8.85-5.76,5.89-8.63,12.87-8.63,20.92s2.87,14.52,8.63,20.28c5.75,5.75,12.65,8.63,20.71,8.63s14.46-2.88,20.06-8.63c5.61-5.76,8.42-12.51,8.42-20.28s-2.81-15.03-8.42-20.92c-5.61-5.9-12.3-8.85-20.06-8.85Z"/>
      <path class="st1" d="M829.49,698.96c-8.06,0-14.96,2.95-20.71,8.85-5.76,5.89-8.63,12.87-8.63,20.92s2.87,14.52,8.63,20.28c5.75,5.75,12.65,8.63,20.71,8.63s14.81-2.88,20.28-8.63c5.46-5.76,8.2-12.51,8.2-20.28s-2.74-15.03-8.2-20.92c-5.47-5.9-12.23-8.85-20.28-8.85Z"/>
      <path class="st1" d="M1498.02,493.37c-3.6-13.95-7.84-27.11-12.73-39.48l-58.24,17.69c6.61,18.98,12.29,37.18,17.04,54.58,4.75,17.41,7.12,31.71,7.12,42.93,0,7.77-1.37,13.95-4.1,18.55-2.74,4.6-6.76,7.98-12.08,10.14-5.33,2.16-11.87,3.24-19.63,3.24-9.21,0-16.47-1-21.79-3.02-5.33-2.01-8.99-4.81-11-8.41-2.02-3.59-3.02-7.55-3.02-11.86,0-4.03.43-9.28,1.3-15.75.86-6.47,1.86-13.44,3.02-20.92,1.14-7.48,2.3-14.52,3.45-21.14l-56.09-9.06c-2.88,21-5.82,37.61-8.84,49.83-3.02,12.23-6.19,21.14-9.49,26.75-3.31,5.61-7.41,9.28-12.3,11-4.89,1.73-10.79,2.59-17.69,2.59-12.66,0-21.36-2.37-26.1-7.12-4.75-4.75-7.12-11.28-7.12-19.63,0-5.18.43-10.71,1.29-16.61.86-5.89,1.87-11.79,3.02-17.69,1.14-5.89,2.16-11.14,3.02-15.75l-55.22-10.35c-3.74,20.14-7.05,36.03-9.92,47.68-2.88,11.65-6.12,20.28-9.71,25.89-3.6,5.61-8.13,9.28-13.59,11-5.47,1.73-12.51,2.59-21.14,2.59-6.9,0-13.38-1.87-19.41-5.61-6.04-3.73-11.59-9.49-16.61-17.26-5.04-7.77-9.86-17.4-14.46-28.91-7.19-17.26-14.6-31.28-22.22-42.07-7.63-10.79-15.75-18.62-24.37-23.51-8.63-4.89-18.41-7.34-29.34-7.34-7.77,0-15.46,1.29-23.08,3.88-7.63,2.59-15.1,6.69-22.44,12.3-7.34,5.61-14.67,13.02-22,22.22-7.34,9.21-14.31,20.43-20.93,33.65-7.19,13.81-12.87,24.53-17.04,32.14-4.17,7.62-8.27,12.94-12.3,15.96-4.01,3-9.16,4.5-15.44,4.52-10.77-.02-19.81-.72-27.06-2.14-7.33-1.44-13.09-3.52-17.26-6.26-4.17-2.73-7.19-6.26-9.06-10.57-1.87-4.31-2.8-9.2-2.8-14.67,0-5.18.36-10.71,1.08-16.61.71-5.89,1.58-11.72,2.59-17.47,1-5.75,1.79-10.79,2.37-15.1l-56.09-9.49c-2.88,20.71-5.97,37.18-9.28,49.4-3.31,12.23-7.33,21.5-12.08,27.83-4.75,6.33-10.57,10.43-17.47,12.3-6.86,1.86-15.29,2.78-25.26,2.79-8.82-.01-16.88-.72-24.14-2.15-7.33-1.44-13.45-4.46-18.33-9.06-4.89-4.6-8.92-11.65-12.08-21.14-.58-2.87-1.66-6.83-3.24-11.87-1.59-5.03-3.31-11.36-5.18-18.98-1.87-7.62-4.24-17.04-7.12-28.26l-58.25,15.53c4.03,13.23,7.69,25.6,11,37.11,3.31,11.51,5.97,22.37,7.98,32.57,2.01,10.21,3.02,19.78,3.02,28.69,0,11.8-1.44,22.3-4.32,31.5-2.88,9.2-7.33,17.04-13.37,23.51-6.04,6.47-14.02,11.43-23.95,14.88-9.92,3.45-22.08,5.18-36.46,5.18s-27.33-2.31-37.97-6.9c-10.64-4.6-18.7-11.43-24.16-20.49-5.47-9.06-8.2-20.06-8.2-33.01,0-10.07,1.3-20.06,3.89-29.99,2.59-9.92,6.47-21.5,11.65-34.73l-52.21-18.98c-9.49,21-15.61,39.2-18.33,54.58-2.74,15.39-4.1,28.26-4.1,38.62,0,19.27,3.24,35.81,9.71,49.62,6.47,13.81,15.6,25.17,27.4,34.08,11.79,8.91,25.46,15.39,40.99,19.42,15.53,4.03,32.07,6.04,49.62,6.04,21.28,0,40.19-2.88,56.74-8.63,16.54-5.76,30.63-14.17,42.28-25.24,11.65-11.08,20.63-24.16,26.97-39.26,5.14-12.27,8.18-25.69,9.33-40.15,5.84,5.23,12.47,9.35,20.22,11.89,8.63,2.83,17.33,4.23,26.11,4.28v.03c.1,0,.2-.01.3-.01.04,0,.09.01.13.01.14,0,.25-.03.38-.03,9.24-.03,18.67-.66,28.31-1.91,9.93-1.29,19.56-3.95,28.91-7.98,9.34-4.02,17.83-10.14,25.46-18.34,2.01-2.16,3.92-4.54,5.75-7.09.36.74.54,1.63.93,2.34,4.32,7.91,10.07,14.31,17.26,19.2,7.19,4.89,16.1,8.41,26.75,10.57,10.52,2.13,22.62,3.19,36.24,3.22v.02c.07,0,.12-.01.18-.01.09,0,.16.01.25.01.54,0,.99-.09,1.52-.11,10.09-.14,19.22-1.19,27.17-3.34,8.48-2.3,16.18-6.32,23.08-12.08,6.9-5.75,13.52-13.95,19.85-24.59,8.91,11.8,18.34,21.07,28.26,27.83,9.93,6.76,19.56,11.43,28.91,14.02,9.34,2.59,17.47,3.88,24.37,3.88,10.64,0,19.63-2.02,26.96-6.04,7.34-4.03,13.44-9.28,18.34-15.75,1.51-2,2.71-3.99,4.01-5.98,6,6.33,12.77,11.7,21.01,15.26,10.64,4.6,22.58,6.9,35.81,6.9h0c13.81,0,26.53-1.29,38.18-3.88,11.65-2.59,22.22-7.91,31.71-15.96,3.29-2.79,6.3-6.3,9.18-10.14,2.31,4.32,4.79,8.2,7.65,11.21,7.48,7.91,15.89,13.02,25.24,15.32,9.34,2.3,18.48,3.45,27.4,3.45,13.52,0,25.09-1.08,34.73-3.24,9.63-2.16,18.12-7.12,25.46-14.89,3.79-4.01,7.35-9.26,10.72-15.64,1.69,4.39,3.6,8.39,5.9,11.76,5.46,8.06,13.09,13.74,22.87,17.04,9.78,3.3,22.01,4.96,36.67,4.96,13.23,0,25.38-2.02,36.46-6.04,11.07-4.02,20.71-9.92,28.91-17.69,8.2-7.77,14.52-17.26,18.98-28.48,4.46-11.22,6.69-24.16,6.69-38.83,0-9.78-1.08-21.28-3.24-34.52-2.16-13.23-5.04-26.82-8.63-40.77ZM1049.31,600.59c-3.02,4.6-7.55,6.9-13.59,6.9-5.47,0-10.79-1.01-15.97-3.02-5.18-2.01-10.21-4.81-15.1-8.41-4.89-3.59-9.42-7.62-13.59-12.08-4.17-4.46-7.55-8.99-10.14-13.59,3.74-7.48,7.4-13.95,11-19.42,3.6-5.46,7.48-9.78,11.65-12.94,4.16-3.16,8.26-4.75,12.3-4.75,2.87,0,5.82,1.29,8.84,3.88,3.02,2.59,5.89,6.04,8.63,10.36,2.73,4.32,5.46,9.35,8.2,15.1,2.73,5.76,5.24,11.94,7.55,18.55,3.16,8.35,3.24,14.82.22,19.42Z"/>
      <path class="st1" d="M1693.25,698.96c-8.06,0-14.96,2.95-20.71,8.85-5.76,5.89-8.63,12.87-8.63,20.92s2.87,14.52,8.63,20.28c5.75,5.75,12.65,8.63,20.71,8.63s14.88-2.88,20.5-8.63c5.61-5.76,8.41-12.51,8.41-20.28s-2.81-15.03-8.41-20.92c-5.61-5.9-12.45-8.85-20.5-8.85Z"/>
      <path class="st1" d="M1786.66,707.81c-5.61-5.9-12.3-8.85-20.06-8.85s-14.96,2.95-20.71,8.85c-5.76,5.89-8.63,12.87-8.63,20.92s2.87,14.52,8.63,20.28c5.75,5.75,12.65,8.63,20.71,8.63s14.45-2.88,20.06-8.63c5.61-5.76,8.41-12.51,8.41-20.28s-2.8-15.03-8.41-20.92Z"/>
      <path class="st1" d="M1712.88,656.03c15.39-2.44,28.69-6.97,39.91-13.59,11.22-6.61,19.92-16.03,26.11-28.26,6.18-12.22,9.28-28.11,9.28-47.68,0-12.65-1.23-25.81-3.67-39.48-2.45-13.66-5.39-27.03-8.84-40.12-3.45-13.09-7.05-24.52-10.79-34.3l-56.95,15.96c3.73,10.35,7.26,21.65,10.57,33.87,3.31,12.23,6.04,24.02,8.2,35.38,2.16,11.37,3.24,21.22,3.24,29.55,0,9.21-1.8,16.18-5.39,20.93-3.6,4.75-9.92,8.06-18.98,9.92-9.06,1.87-22.08,2.8-39.05,2.8v.03c-.16,0-.28-.03-.43-.03-10.64,0-18.7-1.15-24.16-3.45-5.47-2.3-9.42-6.9-11.86-13.81-2.45-6.9-3.96-17.26-4.53-31.06l-8.63-212.27h-59.54l9.49,241.18c.57,18.12,3.73,32.94,9.49,44.44,5.75,11.51,15.46,19.99,29.12,25.45,13.66,5.47,32.42,8.2,56.3,8.2.16,0,.28-.03.43-.03v.03c18.4,0,35.31-1.23,50.69-3.67Z"/>
    </g>
    <g>
      <path class="st1" d="M2066.15,523.05c-15.83-5.51-30.66-13.52-44.11-23.78l-2.67-2.05-3.24.95c-13.54,3.99-26.21,9.37-37.66,15.97-35.63,20.55-62.84,53.3-76.61,92.21l-1.61,4.55,3.83,2.94c14.63,11.22,30.61,19.92,47.49,25.88l6.26,2.21,2.21-6.26c7.05-19.95,17.81-38.03,31.98-53.76,19.73-21.89,45.25-37.86,73.8-46.2l19.91-5.82-19.58-6.83ZM2045.22,528.84c-24.07,9.81-45.76,24.97-63.06,44.17-13.84,15.35-24.68,32.79-32.26,51.88-11.86-4.76-23.22-11.03-33.82-18.68,13.17-33.9,37.6-62.44,69.02-80.56,9.65-5.56,20.28-10.19,31.62-13.77,8.96,6.56,18.51,12.25,28.49,16.95Z"/>
      <path class="st1" d="M2201.18,760.08c-16.78-12.85-30.65-28.67-41.23-47.02-14.72-25.53-22.03-54.74-21.14-84.46l.63-20.74-12.56,16.52c-10.14,13.35-22.35,25-36.28,34.61l-2.78,1.92-.09,3.37c-.39,14.11.81,27.82,3.54,40.75,8.54,40.24,31.27,76.24,64.03,101.36l3.83,2.93,3.97-2.73c15.21-10.46,28.44-22.97,39.31-37.2l4.05-5.27-5.28-4.04ZM2187.81,766.41c-8.2,9.81-17.68,18.68-28.25,26.42-28.17-23.01-47.76-55.06-55.28-90.54-2.31-10.91-3.43-22.45-3.33-34.32,9.03-6.49,17.4-13.83,24.96-21.88,1.89,25.93,9.61,51.23,22.53,73.62,10.32,17.89,23.55,33.59,39.37,46.71Z"/>
      <path class="st1" d="M2100.23,607.73c-42.07,29.22-95.99,36.48-144.24,19.46l-6.26-2.21-2.21,6.26c-5.98,16.92-9.25,34.8-9.73,53.14l-.12,4.82,4.55,1.61c18.39,6.51,37.67,9.81,57.31,9.81,35.43,0,69.54-10.61,98.62-30.68l2.77-1.91.1-3.37c.46-16.81,3.58-33.37,9.26-49.22l6.99-19.53-17.04,11.83Z"/>
      <path class="st1" d="M2426.47,619.81c-5.24-17.67-13.05-34.12-23.23-48.88l-3.77-5.46-5.47,3.76c-17.4,11.98-36.73,20.28-57.43,24.67-28.84,6.11-58.87,4.03-86.86-6l-19.53-6.99,11.82,17.03c9.58,13.79,16.89,29.01,21.72,45.24l.97,3.23,3.18,1.13c13.28,4.71,26.66,7.81,39.8,9.2,5.99.63,12.07.95,18.07.95,35.16,0,69.09-10.55,98.11-30.52l3.98-2.73-1.38-4.63ZM2412.28,618.93c-30.58,19.69-67.12,28.41-103.19,24.6-11.06-1.17-22.37-3.67-33.62-7.43-3.39-10.6-7.79-20.83-13.11-30.53,25.25,6.22,51.7,6.69,76.98,1.33,20.19-4.28,39.2-12.01,56.56-22.99,6.8,10.82,12.3,22.58,16.39,35.02Z"/>
      <path class="st1" d="M2276.48,639.38l-.97-3.23-3.18-1.13c-15.85-5.63-30.65-13.71-44-24.03l-16.41-12.69,5.98,19.86c14.78,49.01,5.04,102.53-26.05,143.17l-4.03,5.27,5.27,4.04c14.26,10.92,30.26,19.56,47.54,25.68l4.55,1.61,2.93-3.83c33.58-43.77,44.17-101.61,28.35-154.71Z"/>
      <path class="st1" d="M2336.41,316.37l-1.36-4.63-4.83-.13c-18.43-.5-36.46,1.87-53.63,6.98l-6.36,1.89,1.88,6.37c6.02,20.25,7.94,41.18,5.72,62.23-3.1,29.3-14.35,57.22-32.54,80.75l-12.68,16.41,19.85-5.99c16.05-4.84,32.79-7.09,49.71-6.68l3.37.08,2.06-2.68c8.59-11.17,15.66-22.95,21.03-35,16.75-37.56,19.51-80.05,7.78-119.62ZM2291.04,390.48h0c2.17-20.53.69-40.99-4.39-60.88,12.33-3.1,25.2-4.7,38.34-4.76,9.27,35.16,6.28,72.61-8.49,105.74-4.53,10.16-10.39,20.13-17.44,29.67-10.99-.18-22.19.96-33.06,3.03,13.7-22.08,22.33-47.09,25.05-72.8Z"/>
      <path class="st1" d="M2440.89,535.06c-31.26-45.46-83-73.41-138.4-74.77l-3.38-.08-2.05,2.67c-10.26,13.34-22.53,24.93-36.46,34.44l-17.14,11.68,20.74.45c51.18,1.1,99.08,26.9,128.11,69.01l3.77,5.46,5.46-3.76c14.82-10.2,27.99-22.75,39.15-37.3l2.94-3.83-2.74-3.98Z"/>
      <path class="st1" d="M2151.96,378.71c-7.96-11.61-16.98-22-26.8-30.85-30.56-27.54-70.11-43.3-111.37-44.37l-4.83-.13-1.61,4.55c-6.14,17.35-9.48,35.22-9.94,53.14l-.17,6.64,6.64.17c21.13.53,41.65,5.18,60.98,13.8,26.92,12,50,31.34,66.76,55.91l11.69,17.14.44-20.75c.36-16.77,3.39-33.35,9-49.3l1.12-3.19-1.91-2.78ZM2139.11,383.52c-3.48,10.54-5.93,21.39-7.32,32.34-16.77-19.86-37.88-35.79-61.5-46.32-18.87-8.41-38.8-13.33-59.28-14.64.86-12.74,3.31-25.46,7.31-37.91,36.31,2.05,71.01,16.47,97.95,40.75,8.27,7.45,15.94,16.12,22.85,25.79Z"/>
      <path class="st1" d="M2073.78,492.59c-40.78-30.99-64.36-80.03-63.08-131.2l.17-6.64-6.64-.17c-17.99-.45-36.01,1.96-53.57,7.17l-4.63,1.38-.12,4.82c-1.43,55.18,24.01,108.21,68.07,141.87l2.68,2.04,3.23-.95c16.13-4.75,32.78-6.93,49.67-6.4l20.73.62-16.51-12.55Z"/>
      <path class="st1" d="M2284.85,323.06c-5.13-17.25-12.99-33.66-23.39-48.76l-2.73-3.98-4.63,1.38c-52.91,15.69-95.49,56.28-113.89,108.57l-1.12,3.18,1.91,2.78c9.51,13.86,16.73,29.1,21.46,45.3l5.81,19.91,6.83-19.58c16.86-48.35,56.22-85.93,105.26-100.53l6.36-1.89-1.88-6.37Z"/>
    </g>
  </g>
</svg>