<svg width="34" height="33" viewBox="0 0 34 33" fill="none" xmlns="http://www.w3.org/2000/svg">
<path d="M10.103 15.4541C9.13962 15.1214 8.23649 14.6401 7.41766 14.0221L7.2551 13.8973L7.05641 13.9568C6.23156 14.1944 5.46089 14.5212 4.76248 14.9194C2.58896 16.1553 0.933229 18.122 0.0963336 20.4632L1.5356e-09 20.7365L0.234812 20.9147C1.12589 21.5862 2.10127 22.115 3.13083 22.4715L3.51014 22.6022L3.6426 22.2279C4.07008 21.0276 4.72635 19.9403 5.59335 18.9955C6.79752 17.6764 8.35089 16.7198 10.0909 16.2147L11.3011 15.8641L10.109 15.4541L10.103 15.4541ZM8.82654 15.8047C7.35745 16.393 6.03889 17.308 4.98525 18.4607C4.14233 19.3817 3.48004 20.4334 3.01644 21.5802C2.29394 21.295 1.60154 20.9147 0.957311 20.4572C1.75808 18.4191 3.25125 16.7019 5.16587 15.6146C5.75591 15.2818 6.40014 15.0025 7.09254 14.7886C7.64043 15.1808 8.21843 15.5254 8.82654 15.8106L8.82654 15.8047Z" fill="url(#paint0_linear_2702_2289)"/>
<path d="M18.3094 29.8549C17.2943 29.0756 16.4584 28.1164 15.8195 27.0014C14.9298 25.4547 14.488 23.6803 14.5417 21.8758L14.5775 20.6169L13.8192 21.618C13.2042 22.4273 12.4698 23.1347 11.6279 23.7162L11.4607 23.8301L11.4607 24.034C11.4309 24.8912 11.5025 25.7245 11.6697 26.5038C12.1832 28.9437 13.5565 31.1318 15.5389 32.6545L15.7717 32.8343L16.0106 32.6665C16.9301 32.031 17.7302 31.2757 18.387 30.4064L18.6318 30.0887L18.3154 29.8429L18.3094 29.8549ZM17.5033 30.2326C17.0077 30.8261 16.4345 31.3656 15.7956 31.8332C14.0939 30.4364 12.9116 28.4941 12.4519 26.342C12.3146 25.6825 12.2429 24.9811 12.2489 24.2618C12.7922 23.8661 13.2998 23.4225 13.7595 22.9309C13.873 24.5015 14.3387 26.0422 15.1209 27.397C15.7419 28.4821 16.542 29.4353 17.4973 30.2326L17.5033 30.2326Z" fill="url(#paint1_linear_2702_2289)"/>
<path d="M12.2398 20.5741C9.66183 22.3669 6.35772 22.8091 3.40459 21.7673L3.02334 21.6341L2.89021 22.0156C2.52712 23.0514 2.32137 24.1476 2.29111 25.2742L2.29111 25.571C2.28506 25.571 2.56343 25.6679 2.56343 25.6679C3.68901 26.0676 4.86905 26.2675 6.0733 26.2675C8.24578 26.2675 10.3335 25.6194 12.1127 24.3899L12.2821 24.2748L12.2821 24.0689C12.3184 23.0392 12.506 22.0217 12.857 21.0526L13.2867 19.8534L12.2458 20.5802L12.2398 20.5741Z" fill="url(#paint2_linear_2702_2289)"/>
<path d="M32.1334 21.3517C31.8139 20.2676 31.3375 19.2622 30.7165 18.3538L30.4874 18.0207L30.1558 18.2508C29.0946 18.9836 27.9129 19.4924 26.6528 19.7649C24.8922 20.1404 23.0593 20.0132 21.353 19.3955L20.1592 18.9655L20.8827 20.0072C21.4675 20.855 21.9137 21.7877 22.2092 22.781L22.2694 22.9808L22.4624 23.0474C23.2703 23.3381 24.0903 23.5259 24.8922 23.6107C25.26 23.647 25.6278 23.6712 25.9956 23.6712C28.142 23.6712 30.2101 23.0232 31.9827 21.7998L32.2239 21.6302L32.1395 21.3456L32.1334 21.3517ZM31.2712 21.2972C29.4021 22.5024 27.1773 23.0414 24.9706 22.8052C24.2953 22.7325 23.608 22.5811 22.9206 22.351C22.7156 21.7029 22.4443 21.0731 22.1187 20.4795C23.6622 20.8611 25.272 20.8914 26.8156 20.5583C28.0455 20.2979 29.2092 19.8194 30.2643 19.1472C30.6804 19.8134 31.018 20.5341 31.2652 21.2972L31.2712 21.2972Z" fill="url(#paint3_linear_2702_2289)"/>
<path d="M22.9358 22.516L22.876 22.3164L22.6845 22.2499C21.7271 21.9052 20.8296 21.4092 20.0218 20.7802L19.0285 20.006L19.3875 21.2217C20.2851 24.2216 19.6927 27.4998 17.8078 29.9856L17.5625 30.3061L17.8796 30.5541C18.7413 31.2255 19.7106 31.7517 20.7578 32.1266L21.033 32.2234L21.2125 31.9875C23.247 29.3082 23.8872 25.77 22.9298 22.516L22.9358 22.516Z" fill="url(#paint4_linear_2702_2289)"/>
<path d="M26.591 2.73332L26.5073 2.44896L26.2143 2.44896C25.0959 2.41266 24.0075 2.55786 22.9669 2.86643L22.5841 2.98138L22.6977 3.37465C23.0625 4.61495 23.1762 5.89761 23.0446 7.18631C22.8592 8.98324 22.1774 10.6894 21.077 12.1294L20.3115 13.1337L21.5136 12.7647C22.4824 12.4682 23.4991 12.329 24.5218 12.3532L24.7251 12.3532L24.8507 12.1959C25.371 11.5123 25.7956 10.7923 26.1245 10.0541C27.1412 7.75504 27.3087 5.15343 26.597 2.72727L26.591 2.73332ZM23.84 7.27102C23.9716 6.01256 23.8819 4.76016 23.5769 3.54406C24.3244 3.3565 25.1019 3.25364 25.8973 3.25364C26.4595 5.40754 26.28 7.70059 25.383 9.72742C25.1079 10.3506 24.755 10.9617 24.3244 11.5425C23.6606 11.5304 22.9788 11.603 22.321 11.7301C23.1522 10.3748 23.6726 8.84409 23.834 7.27102L23.84 7.27102Z" fill="url(#paint5_linear_2702_2289)"/>
<path d="M32.9704 16.1348C31.0648 13.3832 27.905 11.6903 24.522 11.6066L24.3169 11.6066L24.1903 11.7621C23.5631 12.5697 22.8154 13.2695 21.9651 13.8497L20.9219 14.5556L22.1882 14.5855C25.3119 14.6513 28.2366 16.2125 30.0095 18.7608L30.2387 19.0897L30.5704 18.8624C31.4749 18.2463 32.2769 17.4866 32.9584 16.6013L33.1393 16.3681L32.9704 16.1288L32.9704 16.1348Z" fill="url(#paint6_linear_2702_2289)"/>
<path d="M15.3169 6.6129C14.8328 5.89537 14.2888 5.2569 13.697 4.71571C11.8499 3.01919 9.45294 2.05235 6.96029 1.98546L6.66739 1.98546C6.66739 1.97938 6.57174 2.2591 6.57174 2.2591C6.20113 3.3293 5.9979 4.42384 5.96801 5.53053L5.95605 5.93794L6.35655 5.9501C7.63575 5.9805 8.87909 6.2663 10.0447 6.8014C11.6706 7.53717 13.0694 8.72899 14.0856 10.2431L14.7909 11.3011L14.8148 10.0242C14.8387 8.99046 15.0181 7.9689 15.3588 6.9899L15.4245 6.79532L15.311 6.62506L15.3169 6.6129ZM14.5399 6.91085C14.3306 7.56149 14.1812 8.22429 14.0975 8.89925C13.0813 7.67702 11.8021 6.69803 10.3795 6.04739C9.23775 5.53053 8.03028 5.22649 6.79292 5.14744C6.84671 4.36303 6.99615 3.57861 7.23526 2.81244C9.43501 2.94014 11.5331 3.82793 13.159 5.3177C13.6612 5.77376 14.1214 6.30886 14.5399 6.90477L14.5399 6.91085Z" fill="url(#paint7_linear_2702_2289)"/>
<path d="M10.5886 13.4963C8.0859 11.6307 6.64367 8.68375 6.71639 5.60607L6.72851 5.20799L6.3225 5.19611C5.21962 5.1664 4.11068 5.31494 3.03809 5.62984L2.75328 5.71302L2.75328 6.00415C2.65633 9.32543 4.21975 12.5101 6.92242 14.5361L7.08603 14.6609L7.28601 14.6015C8.27375 14.3163 9.29786 14.1856 10.3341 14.2153L11.6066 14.2509L10.5947 13.4963L10.5886 13.4963Z" fill="url(#paint8_linear_2702_2289)"/>
<path d="M23.4155 3.20335C23.1017 2.15357 22.6189 1.15778 21.9852 0.23998L21.8163 3.05692e-05L21.5326 0.0840124C18.2978 1.03781 15.6967 3.50328 14.5742 6.67661L14.5078 6.86857L14.6225 7.03653C15.2018 7.87636 15.6424 8.80616 15.9321 9.78995L16.2882 10.9957L16.7046 9.80795C17.7366 6.87457 20.1385 4.58905 23.1319 3.70124L23.5181 3.58727L23.4035 3.19735L23.4155 3.20335Z" fill="url(#paint9_linear_2702_2289)"/>
<defs>
<linearGradient id="paint0_linear_2702_2289" x1="9.77262e-10" y1="18.2498" x2="11.3011" y2="18.2498" gradientUnits="userSpaceOnUse">
<stop offset="0.53" stop-color="#02B968"/>
<stop offset="1" stop-color="#00FF8F"/>
</linearGradient>
<linearGradient id="paint1_linear_2702_2289" x1="11.4541" y1="26.7256" x2="18.6318" y2="26.7256" gradientUnits="userSpaceOnUse">
<stop offset="0.53" stop-color="#02B968"/>
<stop offset="1" stop-color="#00FF8F"/>
</linearGradient>
<linearGradient id="paint2_linear_2702_2289" x1="2.29102" y1="23.0604" x2="13.2867" y2="23.0604" gradientUnits="userSpaceOnUse">
<stop offset="0.53" stop-color="#02B968"/>
<stop offset="1" stop-color="#00FF8F"/>
</linearGradient>
<linearGradient id="paint3_linear_2702_2289" x1="20.1592" y1="20.846" x2="32.2239" y2="20.846" gradientUnits="userSpaceOnUse">
<stop offset="0.53" stop-color="#02B968"/>
<stop offset="1" stop-color="#00FF8F"/>
</linearGradient>
<linearGradient id="paint4_linear_2702_2289" x1="17.5625" y1="26.1147" x2="23.3658" y2="26.1147" gradientUnits="userSpaceOnUse">
<stop offset="0.53" stop-color="#02B968"/>
<stop offset="1" stop-color="#00FF8F"/>
</linearGradient>
<linearGradient id="paint5_linear_2702_2289" x1="20.3115" y1="7.78861" x2="27.0311" y2="7.78861" gradientUnits="userSpaceOnUse">
<stop offset="0.53" stop-color="#02B968"/>
<stop offset="1" stop-color="#00FF8F"/>
</linearGradient>
<linearGradient id="paint6_linear_2702_2289" x1="20.9219" y1="15.3482" x2="33.1393" y2="15.3482" gradientUnits="userSpaceOnUse">
<stop offset="0.53" stop-color="#02B968"/>
<stop offset="1" stop-color="#00FF8F"/>
</linearGradient>
<linearGradient id="paint7_linear_2702_2289" x1="5.95605" y1="6.64325" x2="15.4245" y2="6.64325" gradientUnits="userSpaceOnUse">
<stop offset="0.53" stop-color="#02B968"/>
<stop offset="1" stop-color="#00FF8F"/>
</linearGradient>
<linearGradient id="paint8_linear_2702_2289" x1="2.74902" y1="9.92663" x2="11.6066" y2="9.92663" gradientUnits="userSpaceOnUse">
<stop offset="0.53" stop-color="#02B968"/>
<stop offset="1" stop-color="#00FF8F"/>
</linearGradient>
<linearGradient id="paint9_linear_2702_2289" x1="14.5078" y1="5.49786" x2="23.5181" y2="5.49786" gradientUnits="userSpaceOnUse">
<stop offset="0.53" stop-color="#02B968"/>
<stop offset="1" stop-color="#00FF8F"/>
</linearGradient>
</defs>
</svg>
